<?xml version="1.0" encoding="UTF-8" standalone="no"?>
<!DOCTYPE svg PUBLIC "-//W3C//DTD SVG 1.1//EN"
 "http://www.w3.org/Graphics/SVG/1.1/DTD/svg11.dtd">
<!-- Generated by graphviz version 2.47.0 (20210316.0004)
 -->
<!-- Title: dependencies Pages: 1 -->
<svg width="504pt" height="284pt"
 viewBox="0.00 0.00 504.00 284.00" xmlns="http://www.w3.org/2000/svg" xmlns:xlink="http://www.w3.org/1999/xlink">
<g id="graph0" class="graph" transform="scale(1 1) rotate(0) translate(4 280)">
<title>dependencies</title>
<polygon fill="white" stroke="transparent" points="-4,4 -4,-280 500,-280 500,4 -4,4"/>
<text text-anchor="start" x="227.01" y="-42.4" font-family="Times-12" font-weight="bold" font-size="14.00">Legend</text>
<polygon fill="#ffffb3" stroke="transparent" points="14,-10 14,-30 34,-30 34,-10 14,-10"/>
<text text-anchor="start" x="37.63" y="-15.4" font-family="Times-12" font-size="14.00"> &#160;Declarations</text>
<polygon fill="#8dd3c7" stroke="transparent" points="127,-10 127,-30 147,-30 147,-10 127,-10"/>
<text text-anchor="start" x="150.73" y="-15.4" font-family="Times-12" font-size="14.00"> &#160;Module</text>
<polygon fill="#80b1d3" stroke="transparent" points="213,-10 213,-30 233,-30 233,-10 213,-10"/>
<text text-anchor="start" x="236.78" y="-15.4" font-family="Times-12" font-size="14.00"> &#160;Bootstrap</text>
<polygon fill="#fdb462" stroke="transparent" points="310,-10 310,-30 330,-30 330,-10 310,-10"/>
<text text-anchor="start" x="333.67" y="-15.4" font-family="Times-12" font-size="14.00"> &#160;Providers</text>
<polygon fill="#fb8072" stroke="transparent" points="406,-10 406,-30 426,-30 426,-10 406,-10"/>
<text text-anchor="start" x="429.73" y="-15.4" font-family="Times-12" font-size="14.00"> &#160;Exports</text>
<g id="clust1" class="cluster">
<title>cluster_BusinessRulesModule</title>
<polygon fill="none" stroke="black" stroke-dasharray="1,5" points="75,-70 75,-268 421,-268 421,-70 75,-70"/>
</g>
<g id="clust3" class="cluster">
<title>cluster_BusinessRulesModule_imports</title>
<polygon fill="none" stroke="black" points="299,-78 299,-130 413,-130 413,-78 299,-78"/>
</g>
<g id="clust6" class="cluster">
<title>cluster_BusinessRulesModule_providers</title>
<polygon fill="none" stroke="black" points="83,-78 83,-130 291,-130 291,-78 83,-78"/>
</g>
<g id="clust4" class="cluster">
<title>cluster_BusinessRulesModule_exports</title>
<polygon fill="none" stroke="black" points="180,-208 180,-260 340,-260 340,-208 180,-208"/>
</g>
<!-- PrismaModule -->
<g id="node1" class="node">
<title>PrismaModule</title>
<polygon fill="#8dd3c7" stroke="black" points="405.43,-122 402.43,-126 381.43,-126 378.43,-122 306.57,-122 306.57,-86 405.43,-86 405.43,-122"/>
<text text-anchor="middle" x="356" y="-99.8" font-family="Times,serif" font-size="14.00">PrismaModule</text>
</g>
<!-- BusinessRulesModule -->
<g id="node2" class="node">
<title>BusinessRulesModule</title>
<polygon fill="#8dd3c7" stroke="black" points="330.71,-187 327.71,-191 306.71,-191 303.71,-187 189.29,-187 189.29,-151 330.71,-151 330.71,-187"/>
<text text-anchor="middle" x="260" y="-164.8" font-family="Times,serif" font-size="14.00">BusinessRulesModule</text>
</g>
<!-- PrismaModule&#45;&gt;BusinessRulesModule -->
<g id="edge1" class="edge">
<title>PrismaModule&#45;&gt;BusinessRulesModule</title>
<path fill="none" stroke="black" d="M318.69,-122.11C318.69,-122.11 318.69,-140.99 318.69,-140.99"/>
<polygon fill="black" stroke="black" points="315.19,-140.99 318.69,-150.99 322.19,-140.99 315.19,-140.99"/>
</g>
<!-- BusinessRulesService  -->
<g id="node3" class="node">
<title>BusinessRulesService </title>
<polygon fill="#fb8072" stroke="black" points="331.64,-252 188.36,-252 188.36,-216 331.64,-216 331.64,-252"/>
<text text-anchor="middle" x="260" y="-229.8" font-family="Times,serif" font-size="14.00">BusinessRulesService </text>
</g>
<!-- BusinessRulesModule&#45;&gt;BusinessRulesService  -->
<g id="edge2" class="edge">
<title>BusinessRulesModule&#45;&gt;BusinessRulesService </title>
<path fill="none" stroke="black" stroke-dasharray="5,2" d="M260,-187.11C260,-187.11 260,-205.99 260,-205.99"/>
<polygon fill="black" stroke="black" points="256.5,-205.99 260,-215.99 263.5,-205.99 256.5,-205.99"/>
</g>
<!-- BusinessRulesService -->
<g id="node4" class="node">
<title>BusinessRulesService</title>
<ellipse fill="#fdb462" stroke="black" cx="187" cy="-104" rx="96.14" ry="18"/>
<text text-anchor="middle" x="187" y="-99.8" font-family="Times,serif" font-size="14.00">BusinessRulesService</text>
</g>
<!-- BusinessRulesService&#45;&gt;BusinessRulesModule -->
<g id="edge3" class="edge">
<title>BusinessRulesService&#45;&gt;BusinessRulesModule</title>
<path fill="none" stroke="black" d="M236.36,-119.73C236.36,-119.73 236.36,-140.65 236.36,-140.65"/>
<polygon fill="black" stroke="black" points="232.86,-140.65 236.36,-150.65 239.86,-140.65 232.86,-140.65"/>
</g>
</g>
</svg>
